ply
format ascii 1.0
comment created by MATLAB plywrite
element vertex 147
property float x
property float y
property float z
element face 290
property list uchar uchar vertex_indices
end_header
-6.479870 -4.431010 -0.804515 
-6.479870 -3.872410 1.199390 
-6.479870 -2.892920 0.006520 
-6.479870 -1.040140 0.147389 
-6.479870 4.073870 0.898610 
-6.479870 5.711570 0.349293 
-6.479500 1.779440 -0.403637 
-6.477920 -6.636570 1.014820 
-6.457410 0.107566 1.655690 
-6.456430 -0.676125 -1.804520 
-6.331920 4.039700 -2.057930 
-6.310800 7.610010 -1.845900 
-6.217540 -2.434910 -2.240670 
-6.191780 -8.063820 -0.593578 
-6.145640 -6.567240 -2.101630 
-6.074600 -1.621440 2.679860 
-6.045790 5.996730 -2.557930 
-5.929940 2.185690 2.554490 
-5.922250 -4.304540 2.719410 
-5.902840 7.385830 2.495470 
-5.792250 -4.921730 -2.734330 
-5.678970 -7.195410 2.746630 
-5.510140 -8.473980 0.898610 
-5.412730 -8.236180 -2.265210 
-5.380500 4.900050 2.923150 
-5.329970 8.427390 -0.371410 
-5.170660 1.729150 -2.932320 
-4.998910 -1.114600 -2.996900 
-4.913460 -0.008157 3.000170 
-4.603890 -3.585300 -2.999830 
-4.448860 5.175680 -2.996650 
-4.329480 7.719380 -2.829910 
-4.052620 -8.472390 1.847950 
-3.987440 8.085350 2.464280 
-3.929090 -2.396830 2.957690 
-3.843150 2.515280 3.000170 
-3.835220 -5.018410 2.951710 
-3.510630 5.352200 2.964530 
-3.495490 8.499660 0.047047 
-3.460340 -8.500340 -1.101390 
-3.441540 3.067160 -2.940750 
-3.417370 0.671531 -2.999830 
-3.372940 -1.500830 -2.980300 
-3.370430 -6.849590 -2.981330 
-3.196670 -0.771828 3.000170 
-3.115120 -7.198340 2.977960 
-3.007210 8.461080 -1.956370 
-2.827280 1.162500 2.894210 
-2.681410 -3.750470 -2.365550 
-2.638070 6.611960 -2.986160 
-2.483780 -3.435160 1.733570 
-2.434950 -2.834940 0.018971 
-2.428720 4.524920 -1.779610 
-2.341810 2.374290 -0.832836 
-2.165900 5.088030 0.166188 
-2.092170 2.283960 1.227960 
-1.981090 -5.562840 2.335380 
-1.966690 7.843040 2.517630 
-1.837290 -7.897680 -2.802200 
-1.826910 5.184100 1.900810 
-1.656870 -1.256690 -2.244210 
-1.579480 -8.500340 -0.598461 
-1.553110 -5.322610 -0.109203 
-1.401740 8.499660 -0.550609 
-1.390030 8.238910 -2.510570 
-1.360000 -8.304540 2.138360 
-1.347730 -1.472080 2.096490 
-1.237930 -5.707130 -2.356760 
-1.218640 0.439597 -2.966620 
-0.723033 5.692040 -2.012520 
-0.698131 0.528953 2.799980 
-0.657237 1.498680 -0.980053 
-0.403453 -1.503030 -0.279125 
-0.263072 -6.866550 2.993340 
-0.163463 8.499660 0.543141 
0.033803 -8.500340 0.234547 
0.088490 -5.528660 1.601730 
0.161733 -1.388040 -2.287910 
0.272572 6.018580 2.513230 
0.430287 -1.167340 2.638840 
0.461049 8.364520 1.921440 
0.614125 1.062400 -2.655830 
0.656850 -6.705420 -2.997870 
0.935170 -5.541360 -1.755690 
1.147080 8.488180 -1.875560 
1.161240 7.146260 -2.951850 
1.242790 7.515280 2.972830 
1.443230 -8.383220 -1.645520 
1.485950 1.492820 1.419120 
1.635000 -8.396460 1.748100 
1.795520 -1.498640 0.855397 
1.838250 5.499660 0.055348 
1.868760 -6.181250 2.686940 
1.928330 1.499660 -0.570140 
2.011830 0.578513 2.817310 
2.037710 -5.500340 0.001149 
2.305290 -1.416730 -1.673780 
2.562120 8.499660 -0.499828 
2.900990 8.198870 2.209160 
3.004510 0.292136 -2.946610 
3.175400 6.356830 2.835870 
3.349230 -1.392920 2.244310 
3.373400 5.601220 -1.716870 
3.378530 -7.617040 -2.844550 
3.459580 -5.500340 1.240410 
3.491810 -7.760110 2.859550 
3.596300 -5.515480 -1.184890 
3.638300 1.492820 -1.189770 
3.673450 -1.500340 0.433766 
3.818960 -8.500340 0.349781 
4.018180 -1.336770 -2.191720 
4.110460 5.499660 0.604176 
4.162710 1.499660 1.293140 
4.220330 0.142722 2.907890 
4.330680 8.499660 0.715016 
4.540150 -5.830540 2.498340 
4.547230 8.238850 -2.326180 
4.852410 -6.531350 -2.930370 
4.907830 5.654930 2.452320 
4.908800 0.635398 -2.981270 
5.059680 -8.496190 -1.220780 
5.116810 7.845360 2.796070 
5.175400 -7.910500 2.656420 
5.398790 5.863670 -2.303290 
5.571890 -1.378760 -1.059400 
5.716910 -5.523780 -1.922680 
5.733510 -5.507670 0.017750 
5.754020 1.085350 2.295830 
5.798450 1.232080 0.343922 
5.853140 5.499660 0.433766 
5.879020 -1.058940 0.852711 
6.006950 -0.609231 -2.550610 
6.097520 8.484760 0.767750 
6.127550 -0.979104 2.363210 
6.375600 -6.081400 2.858570 
6.406060 0.540794 -1.285900 
6.632920 8.278460 -0.847484 
6.682240 -6.391460 -2.853830 
6.703720 6.029930 2.399590 
6.828720 -8.064800 2.466970 
6.923270 6.982990 -2.544870 
6.960800 -8.050880 0.139820 
7.106560 -7.875830 -2.355300 
7.229360 7.805810 1.991630 
7.310380 -6.365270 1.331930 
7.352770 6.229760 -0.031078 
7.415640 -6.374370 -1.441230 
3 12 27 9 
3 27 26 9 
3 6 26 10 
3 30 16 10 
3 29 12 20 
3 26 40 10 
3 40 30 10 
3 30 31 16 
3 11 16 31 
3 43 14 23 
3 20 14 43 
3 20 43 29 
3 42 27 29 
3 27 12 29 
3 26 27 41 
3 26 41 40 
3 39 58 43 
3 43 48 29 
3 42 29 48 
3 42 41 27 
3 40 52 30 
3 30 52 49 
3 30 49 31 
3 46 31 49 
3 67 48 43 
3 60 42 48 
3 41 42 60 
3 60 68 41 
3 40 41 68 
3 52 69 49 
3 49 64 46 
3 43 58 67 
3 68 81 71 
3 69 85 49 
3 85 64 49 
3 82 67 58 
3 81 68 60 
3 60 77 81 
3 87 82 58 
3 83 67 82 
3 87 103 82 
3 83 82 103 
3 81 77 96 
3 84 85 116 
3 103 106 83 
3 99 81 96 
3 85 102 116 
3 103 117 106 
3 96 110 99 
3 99 119 107 
3 102 123 116 
3 99 110 119 
3 131 119 110 
3 119 135 107 
3 117 103 120 
3 131 135 119 
3 123 140 116 
3 120 142 117 
3 142 137 117 
3 117 137 125 
3 146 137 142 
3 14 13 23 
3 0 20 12 
3 26 6 9 
3 25 11 31 
3 31 46 25 
3 23 39 43 
3 53 40 68 
3 53 52 40 
3 58 39 61 
3 71 53 68 
3 58 61 87 
3 85 84 63 
3 63 64 85 
3 69 91 85 
3 91 102 85 
3 116 97 84 
3 81 99 107 
3 109 120 103 
3 87 109 103 
3 117 125 106 
3 124 131 110 
3 137 146 125 
3 136 116 140 
3 140 123 145 
3 7 13 14 
3 14 20 0 
3 0 7 14 
3 2 0 12 
3 3 2 12 
3 12 9 3 
3 6 3 9 
3 6 10 5 
3 10 16 5 
3 5 16 11 
3 39 23 13 
3 46 38 25 
3 67 62 51 
3 48 67 51 
3 51 60 48 
3 72 60 51 
3 52 53 55 
3 69 52 54 
3 63 38 46 
3 63 46 64 
3 61 75 87 
3 67 83 62 
3 72 77 60 
3 96 77 72 
3 71 81 93 
3 72 90 96 
3 106 95 83 
3 107 93 81 
3 110 96 108 
3 108 124 110 
3 130 124 108 
3 102 111 123 
3 116 136 114 
3 106 125 126 
3 135 128 107 
3 111 129 123 
3 141 142 120 
3 125 146 126 
3 135 131 124 
3 123 129 145 
3 141 146 142 
3 146 141 144 
3 144 126 146 
3 136 140 145 
3 0 1 7 
3 0 2 1 
3 5 4 6 
3 5 11 25 
3 13 22 39 
3 54 52 55 
3 61 65 75 
3 55 53 71 
3 76 62 83 
3 83 95 76 
3 88 71 93 
3 80 74 84 
3 74 63 84 
3 87 75 89 
3 97 80 84 
3 109 87 89 
3 88 93 107 
3 104 95 106 
3 96 90 108 
3 112 88 107 
3 102 91 111 
3 97 116 114 
3 126 104 106 
3 128 112 107 
3 141 120 109 
3 136 132 114 
3 130 135 124 
3 128 135 130 
3 145 143 136 
3 143 132 136 
3 22 13 7 
3 7 21 22 
3 1 2 3 
3 8 3 6 
3 6 17 8 
3 4 17 6 
3 19 5 25 
3 39 22 32 
3 61 39 32 
3 25 38 33 
3 57 33 38 
3 65 61 32 
3 62 56 50 
3 50 51 62 
3 55 59 54 
3 57 38 63 
3 62 76 56 
3 66 72 51 
3 69 54 59 
3 63 74 57 
3 80 57 74 
3 89 75 65 
3 55 71 70 
3 59 78 69 
3 78 91 69 
3 90 72 66 
3 88 70 71 
3 95 104 92 
3 101 108 90 
3 98 80 97 
3 114 98 97 
3 115 104 126 
3 108 101 130 
3 109 122 141 
3 112 128 127 
3 145 129 138 
3 138 143 145 
3 18 21 7 
3 7 1 18 
3 18 1 15 
3 3 15 1 
3 15 3 8 
3 24 17 4 
3 24 4 5 
3 5 19 24 
3 32 22 21 
3 33 19 25 
3 32 45 65 
3 56 36 50 
3 50 34 66 
3 51 50 66 
3 70 47 55 
3 66 79 90 
3 76 95 92 
3 104 115 92 
3 94 88 112 
3 91 78 100 
3 109 89 105 
3 113 94 112 
3 111 91 118 
3 100 118 91 
3 114 121 98 
3 105 122 109 
3 101 113 130 
3 113 133 130 
3 127 113 112 
3 122 139 141 
3 126 144 115 
3 144 134 115 
3 138 129 118 
3 118 129 111 
3 114 132 121 
3 130 133 127 
3 127 128 130 
3 143 121 132 
3 144 141 139 
3 18 36 21 
3 34 18 15 
3 15 8 28 
3 17 28 8 
3 21 45 32 
3 21 36 45 
3 36 18 34 
3 34 15 28 
3 44 34 28 
3 47 44 28 
3 17 47 28 
3 47 17 35 
3 17 24 35 
3 24 37 35 
3 37 24 19 
3 19 33 37 
3 55 47 35 
3 37 55 35 
3 45 36 56 
3 36 34 50 
3 34 44 66 
3 37 59 55 
3 37 33 57 
3 65 45 73 
3 45 56 73 
3 66 44 70 
3 70 44 47 
3 78 59 57 
3 59 37 57 
3 89 65 73 
3 56 76 73 
3 70 79 66 
3 57 80 78 
3 73 92 89 
3 76 92 73 
3 94 79 70 
3 70 88 94 
3 80 86 78 
3 94 101 90 
3 90 79 94 
3 78 86 100 
3 89 92 105 
3 92 115 105 
3 86 98 100 
3 98 86 80 
3 113 101 94 
3 98 121 100 
3 122 105 115 
3 100 121 118 
3 115 134 122 
3 113 127 133 
3 138 118 121 
3 139 122 134 
3 143 138 121 
3 144 139 134 
